<svg xmlns="http://www.w3.org/2000/svg" viewBox="0 0 120 120" role="img" aria-labelledby="title desc">
  <title id="title">La Botica</title>
  <desc id="desc">Emblema circular verde con las letras L y B entrelazadas</desc>
  <defs>
    <linearGradient id="grad" x1="0%" y1="0%" x2="100%" y2="100%">
      <stop offset="0%" stop-color="#2f7d5c" />
      <stop offset="100%" stop-color="#1d4f3f" />
    </linearGradient>
  </defs>
  <circle cx="60" cy="60" r="56" fill="url(#grad)" stroke="#f7f4e9" stroke-width="4" />
  <path d="M41 82V38h19c9.6 0 15.9 5.7 15.9 14.4 0 8.9-6.4 14.6-16 14.6h-9.3V82H41zm9.6-22h8.3c4.9 0 7.7-2.6 7.7-7.4 0-4.5-3-7.2-7.8-7.2h-8.2V60z" fill="#f7f4e9" />
  <path d="M79 38v18.7c0 8.6-3.4 13.4-10.6 15.2l11 10.1H66.3l-8.6-8.7h-1.1V63.2h6.2c3.7 0 5.3-1.9 5.3-5.9V38H79z" fill="#f7f4e9" />
</svg>
